<?xml version="1.0" encoding="iso-8859-1"?>
<!-- Generator: Adobe Illustrator 18.0.0, SVG Export Plug-In . SVG Version: 6.00 Build 0)  -->
<!DOCTYPE svg PUBLIC "-//W3C//DTD SVG 1.1//EN" "http://www.w3.org/Graphics/SVG/1.1/DTD/svg11.dtd">
<svg version="1.1" id="Capa_1" xmlns="http://www.w3.org/2000/svg" xmlns:xlink="http://www.w3.org/1999/xlink" x="0px" y="0px"
	 viewBox="0 0 444.266 444.266" style="enable-background:new 0 0 444.266 444.266;" xml:space="preserve">
<path style="stroke:#000000;stroke-width:0;stroke-linecap:round;stroke-linejoin:round;" d="M380.152,230.217
	c-21.82,0-41.119,10.967-52.705,27.67l-16.688-7.148v-10.46l52.274-21.69l13.421-30.941h6.168l30.923,36.726
	c1.193,1.417,2.9,2.148,4.619,2.148c1.372,0,2.751-0.465,3.884-1.418c2.549-2.146,2.876-5.953,0.729-8.503L398.4,187.647h3.877
	c3.334,0,6.034-2.701,6.034-6.034c0-3.333-2.7-6.034-6.034-6.034h-9.065l7.896-3.743c3.741-1.774,5.354-6.232,3.611-9.989
	l-4.548-9.805c-1.226-2.642-3.862-4.342-6.774-4.369l-83.704-0.758c-0.023,0-0.046,0-0.068,0c-2.094,0-4.094,0.87-5.522,2.403
	c-0.156,0.166-17.254,17.871-48.801,21.981c-2.063-3.831-5.451-9.225-10.448-14.584c-12.134-13.013-28.078-19.891-46.109-19.891
	c-3.649,0-7.44,0.281-11.265,0.836c-0.02,0.003-0.041,0.006-0.061,0.01c-0.889,0.136-21.944,3.412-51.092,11.588
	c-0.318,0.017-0.777,0.033-1.34,0.033c-3.344,0-11.462-0.596-14.625-6.119c-0.228-0.399-0.449-0.859-0.653-1.381l13.942-2.532
	c3.893-0.708,6.477-4.438,5.77-8.331c-0.707-3.894-4.439-6.475-8.331-5.77l-11.234,2.04c1.719-7.095,5.623-16.795,13.383-30.019
	c1.617-2.757,1.322-6.235-0.74-8.68c-1.461-1.734-3.588-2.681-5.768-2.681c-0.893,0-1.793,0.158-2.662,0.486
	c-0.836,0.315-20.684,7.946-38.691,26.767c-11.527,12.048-23.764,30.391-27.604,56.062c1.022-1.991,2.291-3.927,3.888-5.731
	c0,0,20.592,13.441,8.968,32.9H56.995c0.327,3.953,0.837,8.028,1.565,12.24c0.284,1.642,1.103,3.143,2.329,4.27l16.844,15.477
	c-55.386-7.429-75.307,28.517-75.307,28.517c-4.154,5.53-2.064,11.491,4.639,8.326C2.56,273.897,0,283.818,0,294.332
	c0,35.354,28.761,64.115,64.112,64.115c35.353,0,64.114-28.762,64.114-64.115c0-2.623-0.178-5.205-0.484-7.746h78.34l-30.925-23.052
	c0,0-36.698,3.545-62.88-24.947c2.74-0.138,5.729-0.226,8.906-0.226c21.23,0,50.784,3.821,71.012,22.023
	c0.261,0.234,0.538,0.451,0.829,0.647l69.392,46.77c1.283,0.865,2.752,1.288,4.213,1.288c1.947,0,3.879-0.751,5.336-2.21
	l27.959-27.959l16.668,7.139c-0.352,2.711-0.552,5.469-0.552,8.273c0,35.354,28.761,64.115,64.112,64.115
	c35.353,0,64.113-28.762,64.113-64.115S415.505,230.217,380.152,230.217z M310.76,214.672l47.245-22.4l-6.386,14.719l-40.859,16.955
	V214.672z M64.112,328.276c-18.715,0-33.94-15.227-33.94-33.943s15.226-33.943,33.94-33.943c0.79,0,1.571,0.037,2.348,0.09
	l-14.041,28.948l27.146,13.168l12.981-26.765c3.479,5.327,5.508,11.68,5.508,18.502C98.055,313.049,82.828,328.276,64.112,328.276z
	 M380.152,328.276c-17.172,0-31.397-12.823-33.627-29.397l25.678,10.999l11.88-27.734l-27.806-11.909
	c6.137-6.082,14.574-9.846,23.875-9.846c18.715,0,33.942,15.227,33.942,33.943S398.867,328.276,380.152,328.276z"/>
<g>
</g>
<g>
</g>
<g>
</g>
<g>
</g>
<g>
</g>
<g>
</g>
<g>
</g>
<g>
</g>
<g>
</g>
<g>
</g>
<g>
</g>
<g>
</g>
<g>
</g>
<g>
</g>
<g>
</g>
</svg>
